<svg width="1280" height="720" xmlns="http://www.w3.org/2000/svg" xmlns:xlink="http://www.w3.org/1999/xlink" overflow="hidden"><defs><filter id="fx0" x="-10%" y="-10%" width="120%" height="120%" filterUnits="userSpaceOnUse" primitiveUnits="userSpaceOnUse"><feComponentTransfer color-interpolation-filters="sRGB"><feFuncR type="discrete" tableValues="0 0"/><feFuncG type="discrete" tableValues="0 0"/><feFuncB type="discrete" tableValues="0 0"/><feFuncA type="linear" slope="0.4" intercept="0"/></feComponentTransfer><feGaussianBlur stdDeviation="0.834992 0.834992"/></filter><filter id="fx1" x="-10%" y="-10%" width="120%" height="120%" filterUnits="userSpaceOnUse" primitiveUnits="userSpaceOnUse"><feComponentTransfer color-interpolation-filters="sRGB"><feFuncR type="discrete" tableValues="0 0"/><feFuncG type="discrete" tableValues="0 0"/><feFuncB type="discrete" tableValues="0 0"/><feFuncA type="linear" slope="0.4" intercept="0"/></feComponentTransfer><feGaussianBlur stdDeviation="0.834992 0.834992"/></filter><filter id="fx2" x="-10%" y="-10%" width="120%" height="120%" filterUnits="userSpaceOnUse" primitiveUnits="userSpaceOnUse"><feComponentTransfer color-interpolation-filters="sRGB"><feFuncR type="discrete" tableValues="0 0"/><feFuncG type="discrete" tableValues="0 0"/><feFuncB type="discrete" tableValues="0 0"/><feFuncA type="linear" slope="0.4" intercept="0"/></feComponentTransfer><feGaussianBlur stdDeviation="0.834992 0.834992"/></filter><filter id="fx3" x="-10%" y="-10%" width="120%" height="120%" filterUnits="userSpaceOnUse" primitiveUnits="userSpaceOnUse"><feComponentTransfer color-interpolation-filters="sRGB"><feFuncR type="discrete" tableValues="0 0"/><feFuncG type="discrete" tableValues="0 0"/><feFuncB type="discrete" tableValues="0 0"/><feFuncA type="linear" slope="0.4" intercept="0"/></feComponentTransfer><feGaussianBlur stdDeviation="0.867706 0.867706"/></filter><clipPath id="clip4"><rect x="32" y="29" width="61" height="38"/></clipPath><clipPath id="clip5"><rect x="33" y="30" width="50" height="36"/></clipPath><clipPath id="clip6"><rect x="31" y="29" width="38" height="38"/></clipPath><clipPath id="clip7"><rect x="33" y="21" width="549" height="57"/></clipPath></defs><g><rect x="0" y="0" width="1280" height="720" fill="#FFFFFF"/><g><path d="M14.5001 573.5 1265.5 573.5M14.5001 461.5 1265.5 461.5M14.5001 349.5 1265.5 349.5M14.5001 238.5 1265.5 238.5M14.5001 126.5 1265.5 126.5M14.5001 14.5001 1265.5 14.5001" stroke="#D9D9D9" stroke-linejoin="round" stroke-miterlimit="10" fill="none"/></g><g><path d="M149 126 327 126 327 573 149 573ZM774 126 953 126 953 573 774 573Z" fill="#4472C4"/></g><g><rect x="327" y="171" width="179" height="402" fill="#AB3E97"/></g><g><rect x="953" y="506" width="178" height="67" fill="#AB3E97"/></g><g><text fill="#AB3E97" font-family="UTM Swiss Condensed,UTM Swiss Condensed_MSFontService,sans-serif" font-weight="400" font-stretch="condensed" font-size="37" transform="translate(250.46 643)">Sau 4 tuần</text></g><g><text fill="#AB3E97" font-family="UTM Swiss Condensed,UTM Swiss Condensed_MSFontService,sans-serif" font-weight="400" font-stretch="condensed" font-size="37" transform="translate(875.793 643)">Sau 8 tuần</text></g><g><g clip-path="url(#clip4)" filter="url(#fx0)" transform="translate(358 101)"><g><path d="M22.1016-28.5938C22.1016-28.3125 22.0898-28.0586 22.0664-27.832 22.043-27.6055 22.0117-27.3867 21.9727-27.1758 21.9336-26.9648 21.8789-26.7617 21.8086-26.5664 21.7383-26.3711 21.6562-26.1641 21.5625-25.9453L10.6406-0.773438C10.5625-0.585938 10.4648-0.433594 10.3477-0.316406 10.2305-0.199219 10.082-0.105469 9.90234-0.0351562 9.72266 0.0351562 9.49219 0.0820312 9.21094 0.105469 8.92969 0.128906 8.58594 0.140625 8.17969 0.140625 7.64844 0.140625 7.23437 0.117187 6.9375 0.0703125 6.64062 0.0234375 6.42578-0.0507812 6.29297-0.152344 6.16016-0.253906 6.10156-0.378906 6.11719-0.527344 6.13281-0.675781 6.1875-0.851562 6.28125-1.05469L17.7656-26.7891 3.21094-26.7891C2.91406-26.7891 2.69141-26.9453 2.54297-27.2578 2.39453-27.5703 2.32031-28.0078 2.32031-28.5703 2.32031-28.8672 2.33984-29.125 2.37891-29.3438 2.41797-29.5625 2.47656-29.7461 2.55469-29.8945 2.63281-30.043 2.72656-30.1523 2.83594-30.2227 2.94531-30.293 3.07031-30.3281 3.21094-30.3281L20.8828-30.3281C21.1016-30.3281 21.293-30.3047 21.457-30.2578 21.6211-30.2109 21.7461-30.1172 21.832-29.9766 21.918-29.8359 21.9844-29.6562 22.0312-29.4375 22.0781-29.2187 22.1016-28.9375 22.1016-28.5938ZM39.0755-22.8281C39.0755-21.625 38.9427-20.5312 38.6771-19.5469 38.4115-18.5625 38.0052-17.7227 37.4583-17.0273 36.9115-16.332 36.2201-15.7891 35.3841-15.3984 34.5482-15.0078 33.5677-14.8125 32.4427-14.8125 31.3021-14.8125 30.3255-14.9922 29.513-15.3516 28.7005-15.7109 28.0365-16.2305 27.5208-16.9102 27.0052-17.5898 26.6263-18.418 26.3841-19.3945 26.1419-20.3711 26.0208-21.4844 26.0208-22.7344 26.0208-23.875 26.1497-24.9297 26.4076-25.8984 26.6654-26.8672 27.0599-27.7031 27.5911-28.4062 28.1224-29.1094 28.806-29.6641 29.6419-30.0703 30.4779-30.4766 31.4661-30.6797 32.6068-30.6797 33.8411-30.6797 34.8763-30.4687 35.7122-30.0469 36.5482-29.625 37.2161-29.0586 37.7161-28.3477 38.2161-27.6367 38.5677-26.8047 38.7708-25.8516 38.974-24.8984 39.0755-23.8906 39.0755-22.8281ZM35.7943-22.7109C35.7943-23.5859 35.7318-24.3633 35.6068-25.043 35.4818-25.7227 35.2904-26.2891 35.0326-26.7422 34.7747-27.1953 34.4349-27.5352 34.013-27.7617 33.5911-27.9883 33.0911-28.1016 32.513-28.1016 31.9661-28.1016 31.4896-27.9922 31.0833-27.7734 30.6771-27.5547 30.3451-27.2266 30.0872-26.7891 29.8294-26.3516 29.638-25.8086 29.513-25.1602 29.388-24.5117 29.3255-23.75 29.3255-22.875 29.3255-21.8125 29.3997-20.9258 29.5482-20.2148 29.6966-19.5039 29.9076-18.9414 30.181-18.5273 30.4544-18.1133 30.7982-17.8242 31.2122-17.6602 31.6263-17.4961 32.099-17.4141 32.6302-17.4141 33.2552-17.4141 33.7669-17.5312 34.1654-17.7656 34.5638-18 34.8841-18.3477 35.1263-18.8086 35.3685-19.2695 35.5404-19.8242 35.6419-20.4727 35.7435-21.1211 35.7943-21.8672 35.7943-22.7109ZM56.9583-7.66406C56.9583-6.46094 56.8255-5.36719 56.5599-4.38281 56.2943-3.39844 55.888-2.55859 55.3411-1.86328 54.7943-1.16797 54.1029-0.625 53.2669-0.234375 52.431 0.15625 51.4505 0.351562 50.3255 0.351562 49.1849 0.351562 48.2083 0.171875 47.3958-0.1875 46.5833-0.546875 45.9193-1.06641 45.4036-1.74609 44.888-2.42578 44.5091-3.25391 44.2669-4.23047 44.0247-5.20703 43.9036-6.32031 43.9036-7.57031 43.9036-8.71094 44.0326-9.76562 44.2904-10.7344 44.5482-11.7031 44.9427-12.5391 45.474-13.2422 46.0052-13.9453 46.6888-14.5 47.5247-14.9062 48.3607-15.3125 49.349-15.5156 50.4896-15.5156 51.724-15.5156 52.7591-15.3047 53.5951-14.8828 54.431-14.4609 55.099-13.8945 55.599-13.1836 56.099-12.4727 56.4505-11.6406 56.6536-10.6875 56.8568-9.73438 56.9583-8.72656 56.9583-7.66406ZM53.6771-7.54688C53.6771-8.42188 53.6146-9.19922 53.4896-9.87891 53.3646-10.5586 53.1732-11.125 52.9154-11.5781 52.6576-12.0312 52.3177-12.3711 51.8958-12.5977 51.474-12.8242 50.974-12.9375 50.3958-12.9375 49.849-12.9375 49.3724-12.8281 48.9661-12.6094 48.5599-12.3906 48.2279-12.0625 47.9701-11.625 47.7122-11.1875 47.5208-10.6445 47.3958-9.99609 47.2708-9.34766 47.2083-8.58594 47.2083-7.71094 47.2083-6.64844 47.2826-5.76172 47.431-5.05078 47.5794-4.33984 47.7904-3.77734 48.0638-3.36328 48.3372-2.94922 48.681-2.66016 49.0951-2.49609 49.5091-2.33203 49.9818-2.25 50.513-2.25 51.138-2.25 51.6497-2.36719 52.0482-2.60156 52.4466-2.83594 52.7669-3.18359 53.0091-3.64453 53.2513-4.10547 53.4232-4.66016 53.5247-5.30859 53.6263-5.95703 53.6771-6.70312 53.6771-7.54688ZM32.4427 0.1875C32.3646 0.328125 32.2708 0.433594 32.1615 0.503906 32.0521 0.574219 31.9193 0.636719 31.763 0.691406 31.6068 0.746094 31.4193 0.785156 31.2005 0.808594 30.9818 0.832031 30.7161 0.84375 30.4036 0.84375 30.0599 0.84375 29.7826 0.8125 29.5716 0.75 29.3607 0.6875 29.2122 0.605469 29.1263 0.503906 29.0404 0.402344 29.0091 0.277344 29.0326 0.128906 29.056-0.0195312 29.1302-0.1875 29.2552-0.375L50.349-30.5859C50.4271-30.7109 50.5208-30.8164 50.6302-30.9023 50.7396-30.9883 50.8763-31.0547 51.0404-31.1016 51.2044-31.1484 51.3919-31.1836 51.6029-31.207 51.8138-31.2305 52.0833-31.2422 52.4115-31.2422 52.7396-31.2422 53.0091-31.2148 53.2201-31.1602 53.431-31.1055 53.5833-31.0234 53.6771-30.9141 53.7708-30.8047 53.806-30.6719 53.7826-30.5156 53.7591-30.3594 53.6849-30.1953 53.5599-30.0234Z" fill="#AB3E97" transform="translate(32.907 63)"/></g></g><text fill="#AB3E97" font-family="Calibri,Calibri_MSFontService,sans-serif" font-weight="400" font-size="48" transform="translate(389.963 163)">7%</text></g><g><g clip-path="url(#clip5)" filter="url(#fx1)" transform="translate(1117 255)"><g><path d="M21.4219-8.67188C21.4219-7.28125 21.1797-6.02734 20.6953-4.91016 20.2109-3.79297 19.5156-2.83594 18.6094-2.03906 17.7031-1.24219 16.5859-0.628906 15.2578-0.199219 13.9297 0.230469 12.4297 0.445312 10.7578 0.445312 9.74219 0.445312 8.79297 0.363281 7.91016 0.199219 7.02734 0.0351562 6.24219-0.160156 5.55469-0.386719 4.86719-0.613281 4.29688-0.847656 3.84375-1.08984 3.39062-1.33203 3.10547-1.50781 2.98828-1.61719 2.87109-1.72656 2.78125-1.83594 2.71875-1.94531 2.65625-2.05469 2.60156-2.1875 2.55469-2.34375 2.50781-2.5 2.47266-2.69141 2.44922-2.91797 2.42578-3.14453 2.41406-3.42187 2.41406-3.75 2.41406-4.3125 2.47015-4.70312 2.58234-4.92188 2.69452-5.14062 2.85486-5.25 3.06335-5.25 3.20764-5.25 3.49213-5.125 3.91681-4.875 4.34149-4.625 4.88647-4.35547 5.55176-4.06641 6.21704-3.77734 6.99445-3.50781 7.88397-3.25781 8.7735-3.00781 9.76331-2.88281 10.8534-2.88281 11.9113-2.88281 12.8409-3.01562 13.6423-3.28125 14.4437-3.54687 15.1169-3.92187 15.6619-4.40625 16.207-4.89062 16.6157-5.46484 16.8882-6.12891 17.1606-6.79297 17.2969-7.51562 17.2969-8.29688 17.2969-9.15625 17.1234-9.92969 16.7765-10.6172 16.4296-11.3047 15.9213-11.8984 15.2516-12.3984 14.5819-12.8984 13.7589-13.2812 12.7826-13.5469 11.8063-13.8125 10.6968-13.9453 9.4541-13.9453L6.47681-13.9453C6.34766-13.9453 6.22259-13.9727 6.10162-14.0273 5.98065-14.082 5.87579-14.1719 5.78705-14.2969 5.6983-14.4219 5.62567-14.5859 5.56915-14.7891 5.51263-14.9922 5.48438-15.2578 5.48438-15.5859 5.48438-15.8828 5.50781-16.1289 5.55469-16.3242 5.60156-16.5195 5.66797-16.6758 5.75391-16.793 5.83984-16.9102 5.9375-16.9961 6.04688-17.0508 6.15625-17.1055 6.28125-17.1328 6.42188-17.1328L9.07031-17.1328C10.1016-17.1328 11.0273-17.2656 11.8477-17.5312 12.668-17.7969 13.3633-18.1797 13.9336-18.6797 14.5039-19.1797 14.9414-19.7773 15.2461-20.4727 15.5508-21.168 15.7031-21.9453 15.7031-22.8047 15.7031-23.4297 15.6016-24.0273 15.3984-24.5977 15.1953-25.168 14.8906-25.6641 14.4844-26.0859 14.0781-26.5078 13.5586-26.8398 12.9258-27.082 12.293-27.3242 11.5625-27.4453 10.7344-27.4453 9.82812-27.4453 8.99609-27.3086 8.23828-27.0352 7.48047-26.7617 6.80469-26.4687 6.21094-26.1562 5.61719-25.8437 5.125-25.5508 4.73438-25.2773 4.34375-25.0039 4.07031-24.8672 3.91406-24.8672 3.80469-24.8672 3.70703-24.8867 3.62109-24.9258 3.53516-24.9648 3.46484-25.043 3.41016-25.1602 3.35547-25.2773 3.31641-25.4414 3.29297-25.6523 3.26953-25.8633 3.25781-26.1406 3.25781-26.4844 3.25781-26.7187 3.26562-26.9258 3.28125-27.1055 3.29687-27.2852 3.32812-27.4414 3.375-27.5742 3.42187-27.707 3.47656-27.8281 3.53906-27.9375 3.60156-28.0469 3.70703-28.1758 3.85547-28.3242 4.00391-28.4727 4.30469-28.6875 4.75781-28.9688 5.21094-29.25 5.76953-29.5273 6.43359-29.8008 7.09766-30.0742 7.86328-30.3047 8.73047-30.4922 9.59766-30.6797 10.5312-30.7734 11.5312-30.7734 12.9375-30.7734 14.1719-30.5937 15.2344-30.2344 16.2969-29.875 17.1836-29.3672 17.8945-28.7109 18.6055-28.0547 19.1367-27.2695 19.4883-26.3555 19.8398-25.4414 20.0156-24.4297 20.0156-23.3203 20.0156-22.3672 19.8906-21.4805 19.6406-20.6602 19.3906-19.8398 19.0234-19.1133 18.5391-18.4805 18.0547-17.8477 17.4609-17.3086 16.7578-16.8633 16.0547-16.418 15.2422-16.1094 14.3203-15.9375L14.3203-15.8906C15.3672-15.7812 16.3242-15.5195 17.1914-15.1055 18.0586-14.6914 18.8047-14.1719 19.4297-13.5469 20.0547-12.9219 20.543-12.1914 20.8945-11.3555 21.2461-10.5195 21.4219-9.625 21.4219-8.67188ZM45.9896-1.73438C45.9896-1.45312 45.9701-1.20312 45.931-0.984375 45.8919-0.765625 45.8372-0.582031 45.7669-0.433594 45.6966-0.285156 45.6029-0.175781 45.4857-0.105469 45.3685-0.0351562 45.2396 0 45.099 0L28.3411 0C28.1224 0 27.931-0.0273438 27.7669-0.0820312 27.6029-0.136719 27.4622-0.226562 27.3451-0.351562 27.2279-0.476562 27.1419-0.65625 27.0872-0.890625 27.0326-1.125 27.0052-1.41406 27.0052-1.75781 27.0052-2.07031 27.0173-2.34375 27.0415-2.57812 27.0656-2.8125 27.1179-3.01953 27.1984-3.19922 27.2788-3.37891 27.3795-3.55859 27.5003-3.73828 27.6212-3.91797 27.7782-4.10938 27.9713-4.3125L34.0332-10.5469C35.434-11.9844 36.5572-13.2734 37.4025-14.4141 38.2478-15.5547 38.8999-16.5938 39.3588-17.5312 39.8176-18.4688 40.1195-19.3203 40.2644-20.0859 40.4093-20.8516 40.4818-21.5703 40.4818-22.2422 40.4818-22.9141 40.3689-23.5508 40.1432-24.1523 39.9175-24.7539 39.591-25.2812 39.1638-25.7344 38.7365-26.1875 38.2005-26.5469 37.5556-26.8125 36.9107-27.0781 36.169-27.2109 35.3307-27.2109 34.3473-27.2109 33.4646-27.0781 32.6826-26.8125 31.9006-26.5469 31.2154-26.2578 30.6269-25.9453 30.0383-25.6328 29.5466-25.3437 29.1518-25.0781 28.7569-24.8125 28.4626-24.6797 28.269-24.6797 28.1562-24.6797 28.0554-24.7109 27.9667-24.7734 27.8779-24.8359 27.8054-24.9375 27.749-25.0781 27.6926-25.2187 27.6483-25.4062 27.616-25.6406 27.5838-25.875 27.5677-26.1562 27.5677-26.4844 27.5677-26.7187 27.5755-26.9219 27.5911-27.0938 27.6068-27.2656 27.6341-27.4141 27.6732-27.5391 27.7122-27.6641 27.763-27.7812 27.8255-27.8906 27.888-28 28.013-28.1367 28.2005-28.3008 28.388-28.4648 28.7122-28.6875 29.1732-28.9688 29.6341-29.25 30.2122-29.5273 30.9076-29.8008 31.6029-30.0742 32.3685-30.3047 33.2044-30.4922 34.0404-30.6797 34.9193-30.7734 35.8411-30.7734 37.3099-30.7734 38.5951-30.5664 39.6966-30.1523 40.7982-29.7383 41.7122-29.1719 42.4388-28.4531 43.1654-27.7344 43.7083-26.8984 44.0677-25.9453 44.4271-24.9922 44.6068-23.9766 44.6068-22.8984 44.6068-21.9297 44.5208-20.9648 44.349-20.0039 44.1771-19.043 43.8138-18.0039 43.2591-16.8867 42.7044-15.7695 41.9036-14.5273 40.8568-13.1602 39.8099-11.793 38.4193-10.2188 36.6849-8.4375L31.8802-3.42188 45.0755-3.42188C45.2005-3.42187 45.3216-3.38672 45.4388-3.31641 45.556-3.24609 45.6576-3.14062 45.7435-3 45.8294-2.85938 45.8919-2.68359 45.931-2.47266 45.9701-2.26172 45.9896-2.01562 45.9896-1.73438Z" fill="#AB3E97" transform="translate(33.4404 63)"/></g></g><text fill="#AB3E97" font-family="Calibri,Calibri_MSFontService,sans-serif" font-weight="400" font-size="48" transform="translate(1149.5 317)">32</text></g><g><g clip-path="url(#clip6)" filter="url(#fx2)" transform="translate(1166 255)"><g><path d="M14.7422-22.8281C14.7422-21.625 14.6094-20.5312 14.3438-19.5469 14.0781-18.5625 13.6719-17.7227 13.125-17.0273 12.5781-16.332 11.8867-15.7891 11.0508-15.3984 10.2148-15.0078 9.23438-14.8125 8.10938-14.8125 6.96875-14.8125 5.99219-14.9922 5.17969-15.3516 4.36719-15.7109 3.70312-16.2305 3.1875-16.9102 2.67188-17.5898 2.29297-18.418 2.05078-19.3945 1.80859-20.3711 1.6875-21.4844 1.6875-22.7344 1.6875-23.875 1.81641-24.9297 2.07422-25.8984 2.33203-26.8672 2.72656-27.7031 3.25781-28.4062 3.78906-29.1094 4.47266-29.6641 5.30859-30.0703 6.14453-30.4766 7.13281-30.6797 8.27344-30.6797 9.50781-30.6797 10.543-30.4687 11.3789-30.0469 12.2148-29.625 12.8828-29.0586 13.3828-28.3477 13.8828-27.6367 14.2344-26.8047 14.4375-25.8516 14.6406-24.8984 14.7422-23.8906 14.7422-22.8281ZM11.4609-22.7109C11.4609-23.5859 11.3984-24.3633 11.2734-25.043 11.1484-25.7227 10.957-26.2891 10.6992-26.7422 10.4414-27.1953 10.1016-27.5352 9.67969-27.7617 9.25781-27.9883 8.75781-28.1016 8.17969-28.1016 7.63281-28.1016 7.15625-27.9922 6.75-27.7734 6.34375-27.5547 6.01172-27.2266 5.75391-26.7891 5.49609-26.3516 5.30469-25.8086 5.17969-25.1602 5.05469-24.5117 4.99219-23.75 4.99219-22.875 4.99219-21.8125 5.06641-20.9258 5.21484-20.2148 5.36328-19.5039 5.57422-18.9414 5.84766-18.5273 6.12109-18.1133 6.46484-17.8242 6.87891-17.6602 7.29297-17.4961 7.76562-17.4141 8.29688-17.4141 8.92188-17.4141 9.43359-17.5312 9.83203-17.7656 10.2305-18 10.5508-18.3477 10.793-18.8086 11.0352-19.2695 11.207-19.8242 11.3086-20.4727 11.4102-21.1211 11.4609-21.8672 11.4609-22.7109ZM32.625-7.66406C32.625-6.46094 32.4922-5.36719 32.2266-4.38281 31.9609-3.39844 31.5547-2.55859 31.0078-1.86328 30.4609-1.16797 29.7695-0.625 28.9336-0.234375 28.0977 0.15625 27.1172 0.351562 25.9922 0.351562 24.8516 0.351562 23.875 0.171875 23.0625-0.1875 22.25-0.546875 21.5859-1.06641 21.0703-1.74609 20.5547-2.42578 20.1758-3.25391 19.9336-4.23047 19.6914-5.20703 19.5703-6.32031 19.5703-7.57031 19.5703-8.71094 19.6992-9.76562 19.957-10.7344 20.2148-11.7031 20.6094-12.5391 21.1406-13.2422 21.6719-13.9453 22.3555-14.5 23.1914-14.9062 24.0273-15.3125 25.0156-15.5156 26.1562-15.5156 27.3906-15.5156 28.4258-15.3047 29.2617-14.8828 30.0977-14.4609 30.7656-13.8945 31.2656-13.1836 31.7656-12.4727 32.1172-11.6406 32.3203-10.6875 32.5234-9.73438 32.625-8.72656 32.625-7.66406ZM29.3438-7.54688C29.3437-8.42188 29.2812-9.19922 29.1562-9.87891 29.0312-10.5586 28.8398-11.125 28.582-11.5781 28.3242-12.0312 27.9844-12.3711 27.5625-12.5977 27.1406-12.8242 26.6406-12.9375 26.0625-12.9375 25.5156-12.9375 25.0391-12.8281 24.6328-12.6094 24.2266-12.3906 23.8945-12.0625 23.6367-11.625 23.3789-11.1875 23.1875-10.6445 23.0625-9.99609 22.9375-9.34766 22.875-8.58594 22.875-7.71094 22.875-6.64844 22.9492-5.76172 23.0977-5.05078 23.2461-4.33984 23.457-3.77734 23.7305-3.36328 24.0039-2.94922 24.3477-2.66016 24.7617-2.49609 25.1758-2.33203 25.6484-2.25 26.1797-2.25 26.8047-2.25 27.3164-2.36719 27.7148-2.60156 28.1133-2.83594 28.4336-3.18359 28.6758-3.64453 28.918-4.10547 29.0898-4.66016 29.1914-5.30859 29.293-5.95703 29.3437-6.70312 29.3438-7.54688ZM8.10938 0.1875C8.03125 0.328125 7.9375 0.433594 7.82812 0.503906 7.71875 0.574219 7.58594 0.636719 7.42969 0.691406 7.27344 0.746094 7.08594 0.785156 6.86719 0.808594 6.64844 0.832031 6.38281 0.84375 6.07031 0.84375 5.72656 0.84375 5.44922 0.8125 5.23828 0.75 5.02734 0.6875 4.87891 0.605469 4.79297 0.503906 4.70703 0.402344 4.67578 0.277344 4.69922 0.128906 4.72266-0.0195312 4.79688-0.1875 4.92188-0.375L26.0156-30.5859C26.0937-30.7109 26.1875-30.8164 26.2969-30.9023 26.4062-30.9883 26.543-31.0547 26.707-31.1016 26.8711-31.1484 27.0586-31.1836 27.2695-31.207 27.4805-31.2305 27.75-31.2422 28.0781-31.2422 28.4062-31.2422 28.6758-31.2148 28.8867-31.1602 29.0977-31.1055 29.25-31.0234 29.3438-30.9141 29.4375-30.8047 29.4727-30.6719 29.4492-30.5156 29.4258-30.3594 29.3516-30.1953 29.2266-30.0234Z" fill="#AB3E97" transform="translate(33.1071 63)"/></g></g><text fill="#AB3E97" font-family="Calibri,Calibri_MSFontService,sans-serif" font-weight="400" font-size="48" transform="translate(1198.16 317)">%</text></g><g><g clip-path="url(#clip7)" filter="url(#fx3)" transform="translate(335 24)"><g><path d="M3.21094 0 3.21094-36.0938 7.33594-36.0938 7.33594-21.2109 20.7891-21.2109 20.7891-36.0938 24.9141-36.0938 24.9141 0 20.7891 0 20.7891-17.5781 7.33594-17.5781 7.33594 0ZM31.0026-31.1953 31.0026-36.0938 34.8932-36.0938 34.8932-31.1953ZM31.0026 0 31.0026-26.9766 34.8932-26.9766 34.8932 0ZM43.6667-16.4062 52.8307-16.4062 52.8307-17.1328C52.8307-18.4141 52.7448-19.5039 52.5729-20.4023 52.401-21.3008 52.1198-22.0781 51.7292-22.7344 51.026-24 49.9401-24.6328 48.4714-24.6328 46.8776-24.6328 45.6784-23.957 44.8737-22.6055 44.069-21.2539 43.6667-19.1875 43.6667-16.4062ZM52.8776-9.11719 56.5807-9.11719C56.5807-5.94531 55.862-3.51172 54.4245-1.81641 52.987-0.121094 50.9401 0.726562 48.2839 0.726562 45.3932 0.726562 43.2526-0.410156 41.862-2.68359 40.4714-4.95703 39.776-8.46094 39.776-13.1953 39.776-18.2266 40.4674-21.9102 41.8503-24.2461 43.2331-26.582 45.4089-27.75 48.3776-27.75 51.1589-27.75 53.237-26.7578 54.612-24.7734 55.987-22.7891 56.6745-19.7656 56.6745-15.7031L56.651-14.25 56.6276-13.3594 43.6667-13.3359 43.6667-12.1406C43.6667-8.73438 44.0573-6.26562 44.8385-4.73438 45.6198-3.20312 46.862-2.4375 48.5651-2.4375 49.8776-2.4375 50.9245-3.02344 51.7057-4.19531 52.487-5.36719 52.8776-6.94531 52.8776-8.92969ZM42.8464-29.9062 46.8776-36.2344 50.8151-36.2344 54.8464-29.9062 52.5495-29.9062 48.8464-33.7969 45.1432-29.9062ZM46.4089 7.3125 46.4089 3.32812 50.0651 3.32812 50.0651 7.3125ZM74.8177 0 74.8177-3.51562C74.3021-2.17188 73.4583-1.12891 72.2865-0.386719 71.1146 0.355469 69.7161 0.726562 68.0911 0.726562 65.8255 0.726562 64.181 0.171875 63.1576-0.9375 62.1341-2.04688 61.6224-3.8125 61.6224-6.23438L61.6224-26.9766 65.5599-26.9766 65.5599-6.14062C65.5599-5.03125 65.8372-4.17188 66.3919-3.5625 66.9466-2.95312 67.724-2.64844 68.724-2.64844 70.5208-2.64844 71.931-3.21484 72.9544-4.34766 73.9779-5.48047 74.4896-7.05469 74.4896-9.07031L74.4896-26.9766 78.3099-26.9766 78.3099 0ZM110.479-13.5938C110.479-17.4219 110.077-20.1523 109.272-21.7852 108.467-23.418 107.128-24.2344 105.253-24.2344 103.534-24.2344 102.28-23.4023 101.491-21.7383 100.702-20.0742 100.307-17.375 100.307-13.6406 100.307-9.8125 100.682-7.03906 101.432-5.32031 102.182-3.60156 103.409-2.74219 105.112-2.74219 106.909-2.74219 108.253-3.62891 109.143-5.40234 110.034-7.17578 110.479-9.90625 110.479-13.5938ZM114.135 9.11719 110.245 9.11719 110.245-2.88281C109.698-1.80469 108.913-0.957031 107.889-0.339844 106.866 0.277344 105.714 0.585938 104.432 0.585938 101.62 0.585938 99.5495-0.558594 98.2214-2.84766 96.8932-5.13672 96.2292-8.70312 96.2292-13.5469 96.2292-18.2031 96.944-21.7109 98.3737-24.0703 99.8034-26.4297 101.94-27.6094 104.784-27.6094 106.159-27.6094 107.382-27.2305 108.452-26.4727 109.522-25.7148 110.198-24.75 110.479-23.5781L110.479-26.9766 114.135-26.9766ZM132.984 0 132.984-3.51562C132.469-2.17188 131.625-1.12891 130.453-0.386719 129.281 0.355469 127.883 0.726562 126.258 0.726562 123.992 0.726562 122.348 0.171875 121.324-0.9375 120.301-2.04688 119.789-3.8125 119.789-6.23438L119.789-26.9766 123.727-26.9766 123.727-6.14062C123.727-5.03125 124.004-4.17188 124.559-3.5625 125.113-2.95312 125.891-2.64844 126.891-2.64844 128.688-2.64844 130.098-3.21484 131.121-4.34766 132.145-5.48047 132.656-7.05469 132.656-9.07031L132.656-26.9766 136.477-26.9766 136.477 0ZM153.938-14.5547C153.375-13.9141 152.062-13.2187 150-12.4688L149.625-12.3281C147.906-11.7188 146.773-11.0312 146.227-10.2656 145.68-9.5 145.406-8.36719 145.406-6.86719 145.406-5.52344 145.703-4.48438 146.297-3.75 146.891-3.01562 147.727-2.64844 148.805-2.64844 150.352-2.64844 151.594-3.23828 152.531-4.41797 153.469-5.59766 153.938-7.19531 153.938-9.21094ZM159.914 0.046875 158.648 0.210938 157.688 0.28125C156.641 0.28125 155.805-0.0546875 155.18-0.726562 154.867-1.07031 154.625-1.47266 154.453-1.93359 154.281-2.39453 154.195-2.94531 154.195-3.58594 153.633-2.21094 152.801-1.15625 151.699-0.421875 150.598 0.3125 149.297 0.679688 147.797 0.679688 145.859 0.679688 144.344 0.0234375 143.25-1.28906 142.156-2.60156 141.609-4.44531 141.609-6.82031 141.609-9.13281 142.113-10.9023 143.121-12.1289 144.129-13.3555 146.305-14.5312 149.648-15.6562L149.719-15.6797C152.469-16.6016 153.844-17.6797 153.844-18.9141L153.844-21.3984C153.844-22.5078 153.531-23.3164 152.906-23.8242 152.281-24.332 151.266-24.5859 149.859-24.5859 148.547-24.5859 147.555-24.2344 146.883-23.5312 146.211-22.8281 145.875-21.75 145.875-20.2969L145.875-19.8281 142.336-19.8281C142.336-22.5 142.992-24.5078 144.305-25.8516 145.57-27.1172 147.57-27.75 150.305-27.75 152.836-27.75 154.699-27.168 155.895-26.0039 157.09-24.8398 157.688-23 157.688-20.4844L157.688-4.71094C157.688-4.00781 157.812-3.50391 158.062-3.19922 158.312-2.89453 158.719-2.74219 159.281-2.74219L159.797-2.8125 159.891-2.83594ZM148.969-29.6953 148.969-29.9297C148.969-29.9766 148.961-30.0391 148.945-30.1172L148.945-30.4453C148.945-30.9766 149.027-31.457 149.191-31.8867 149.355-32.3164 149.711-32.8516 150.258-33.4922L150.375-33.6562C151.047-34.4531 151.383-35.2578 151.383-36.0703 151.383-36.6641 151.262-37.1055 151.02-37.3945 150.777-37.6836 150.5-37.8281 150.188-37.8281 149.797-37.8281 149.477-37.6484 149.227-37.2891 148.977-36.9297 148.852-36.3594 148.852-35.5781L148.852-35.2031 146.812-35.2031 146.812-35.5547C146.812-36.7109 147.086-37.6211 147.633-38.2852 148.18-38.9492 149.023-39.2812 150.164-39.2812 151.227-39.2812 152.055-38.9805 152.648-38.3789 153.242-37.7773 153.539-37 153.539-36.0469 153.539-35.0781 153.055-34.0234 152.086-32.8828L151.688-32.4844C151.188-31.8437 150.938-31.125 150.938-30.3281L150.938-30.0469C150.938-29.9531 150.953-29.8359 150.984-29.6953ZM179.807-13.4297C179.807-11.5391 179.901-9.92578 180.089-8.58984 180.276-7.25391 180.573-6.16406 180.979-5.32031 181.776-3.69531 183.065-2.88281 184.846-2.88281 186.69-2.88281 188.014-3.70703 188.819-5.35547 189.624-7.00391 190.026-9.8125 190.026-13.7812 190.026-17.4844 189.608-20.1758 188.772-21.8555 187.936-23.5352 186.596-24.375 184.753-24.375 183.034-24.375 181.78-23.5234 180.991-21.8203 180.202-20.1172 179.807-17.3203 179.807-13.4297ZM176.643 2.48438 180.393 2.48438C180.393 3.53125 180.799 4.35938 181.612 4.96875 182.362 5.53125 183.424 5.8125 184.799 5.8125 186.628 5.8125 187.956 5.21094 188.784 4.00781 189.612 2.80469 190.026 0.859375 190.026-1.82812L190.003-2.41406 189.979-3.25781C189.448-2.03906 188.678-1.12109 187.671-0.503906 186.663 0.113281 185.432 0.421875 183.979 0.421875 181.26 0.421875 179.221-0.796875 177.862-3.23438 176.503-5.67187 175.823-9.35938 175.823-14.2969 175.823-18.6875 176.526-22.0039 177.932-24.2461 179.339-26.4883 181.456-27.6094 184.284-27.6094 185.69-27.6094 186.893-27.2773 187.893-26.6133 188.893-25.9492 189.604-25.0156 190.026-23.8125L190.026-26.9766 193.682-26.9766 193.682-1.24219C193.682 2.05469 192.881 4.60547 191.28 6.41016 189.678 8.21484 187.424 9.11719 184.518 9.11719 182.237 9.11719 180.354 8.51172 178.87 7.30078 177.385 6.08984 176.643 4.53906 176.643 2.64844ZM199.336-31.1953 199.336-36.0938 203.227-36.0938 203.227-31.1953ZM199.336 0 199.336-26.9766 203.227-26.9766 203.227 0ZM220.437-14.5547C219.875-13.9141 218.562-13.2187 216.5-12.4688L216.125-12.3281C214.406-11.7188 213.273-11.0312 212.727-10.2656 212.18-9.5 211.906-8.36719 211.906-6.86719 211.906-5.52344 212.203-4.48438 212.797-3.75 213.391-3.01562 214.227-2.64844 215.305-2.64844 216.852-2.64844 218.094-3.23828 219.031-4.41797 219.969-5.59766 220.437-7.19531 220.437-9.21094ZM226.414 0.046875 225.148 0.210938 224.187 0.28125C223.141 0.28125 222.305-0.0546875 221.68-0.726562 221.367-1.07031 221.125-1.47266 220.953-1.93359 220.781-2.39453 220.695-2.94531 220.695-3.58594 220.133-2.21094 219.301-1.15625 218.199-0.421875 217.098 0.3125 215.797 0.679688 214.297 0.679688 212.359 0.679688 210.844 0.0234375 209.75-1.28906 208.656-2.60156 208.109-4.44531 208.109-6.82031 208.109-9.13281 208.613-10.9023 209.621-12.1289 210.629-13.3555 212.805-14.5312 216.148-15.6562L216.219-15.6797C218.969-16.6016 220.344-17.6797 220.344-18.9141L220.344-21.3984C220.344-22.5078 220.031-23.3164 219.406-23.8242 218.781-24.332 217.766-24.5859 216.359-24.5859 215.047-24.5859 214.055-24.2344 213.383-23.5312 212.711-22.8281 212.375-21.75 212.375-20.2969L212.375-19.8281 208.836-19.8281C208.836-22.5 209.492-24.5078 210.805-25.8516 212.07-27.1172 214.07-27.75 216.805-27.75 219.336-27.75 221.199-27.168 222.395-26.0039 223.59-24.8398 224.187-23 224.187-20.4844L224.187-4.71094C224.187-4.00781 224.312-3.50391 224.562-3.19922 224.812-2.89453 225.219-2.74219 225.781-2.74219L226.297-2.8125 226.391-2.83594ZM215.469-29.6953 215.469-29.9297C215.469-29.9766 215.461-30.0391 215.445-30.1172L215.445-30.4453C215.445-30.9766 215.527-31.457 215.691-31.8867 215.855-32.3164 216.211-32.8516 216.758-33.4922L216.875-33.6562C217.547-34.4531 217.883-35.2578 217.883-36.0703 217.883-36.6641 217.762-37.1055 217.52-37.3945 217.277-37.6836 217-37.8281 216.687-37.8281 216.297-37.8281 215.977-37.6484 215.727-37.2891 215.477-36.9297 215.352-36.3594 215.352-35.5781L215.352-35.2031 213.312-35.2031 213.312-35.5547C213.312-36.7109 213.586-37.6211 214.133-38.2852 214.68-38.9492 215.523-39.2812 216.664-39.2812 217.727-39.2812 218.555-38.9805 219.148-38.3789 219.742-37.7773 220.039-37 220.039-36.0469 220.039-35.0781 219.555-34.0234 218.586-32.8828L218.187-32.4844C217.687-31.8437 217.437-31.125 217.437-30.3281L217.437-30.0469C217.437-29.9531 217.453-29.8359 217.484-29.6953ZM230.216 0 230.216-26.9766 233.708-26.9766 233.708-23.7188C234.427-24.9687 235.388-25.9297 236.591-26.6016 237.794-27.2734 239.2-27.6094 240.81-27.6094 242.31-27.6094 243.556-27.2773 244.548-26.6133 245.54-25.9492 246.232-24.9687 246.622-23.6719 247.029-24.3281 247.47-24.9023 247.947-25.3945 248.423-25.8867 248.958-26.2969 249.552-26.625 250.708-27.2812 252.068-27.6094 253.63-27.6094 255.818-27.6094 257.493-27.043 258.658-25.9102 259.822-24.7773 260.404-23.1328 260.404-20.9766L260.404 0 256.513 0 256.513-18.6328C256.513-20.8047 256.232-22.2812 255.669-23.0625 255.107-23.8437 254.122-24.2344 252.716-24.2344 251.107-24.2344 249.794-23.7266 248.779-22.7109 247.763-21.6953 247.255-20.3828 247.255-18.7734L247.255 0 243.365 0 243.365-18.7734C243.365-20.7422 243.064-22.1445 242.462-22.9805 241.861-23.8164 240.865-24.2344 239.474-24.2344 237.833-24.2344 236.497-23.7422 235.466-22.7578 234.435-21.7734 233.919-20.5078 233.919-18.9609L233.919 0ZM278.883 0 278.883-26.9766 282.422-26.9766 282.422-23.625C283.078-24.9375 283.969-25.9219 285.094-26.5781 286.219-27.2344 287.586-27.5625 289.195-27.5625 291.57-27.5625 293.262-26.9609 294.27-25.7578 295.277-24.5547 295.781-22.4844 295.781-19.5469L295.781 0 291.984 0 291.984-19.8281C291.984-21.2812 291.672-22.3711 291.047-23.0977 290.422-23.8242 289.469-24.1875 288.188-24.1875 286.5-24.1875 285.16-23.6562 284.168-22.5938 283.176-21.5312 282.68-20.0938 282.68-18.2812L282.68 0ZM301.383 0 301.383-36.0938 305.18-36.0938 305.18-24.0469C305.883-25.2031 306.766-26.0859 307.828-26.6953 308.938-27.2734 310.227-27.5625 311.695-27.5625 313.758-27.5625 315.371-27.0273 316.535-25.957 317.699-24.8867 318.281-23.3828 318.281-21.4453L318.281 0 314.484 0 314.484-19.6406C314.484-21.2188 314.184-22.3711 313.582-23.0977 312.98-23.8242 312.016-24.1875 310.688-24.1875 309.016-24.1875 307.68-23.6523 306.68-22.582 305.68-21.5117 305.18-20.0781 305.18-18.2812L305.18 0ZM335.438-14.5547C334.875-13.9141 333.562-13.2187 331.5-12.4688L331.125-12.3281C329.406-11.7188 328.273-11.0312 327.727-10.2656 327.18-9.5 326.906-8.36719 326.906-6.86719 326.906-5.52344 327.203-4.48438 327.797-3.75 328.391-3.01562 329.227-2.64844 330.305-2.64844 331.852-2.64844 333.094-3.23828 334.031-4.41797 334.969-5.59766 335.438-7.19531 335.438-9.21094ZM341.414 0.046875 340.148 0.210938 339.188 0.28125C338.141 0.28125 337.305-0.0546875 336.68-0.726562 336.367-1.07031 336.125-1.47266 335.953-1.93359 335.781-2.39453 335.695-2.94531 335.695-3.58594 335.133-2.21094 334.301-1.15625 333.199-0.421875 332.098 0.3125 330.797 0.679688 329.297 0.679688 327.359 0.679688 325.844 0.0234375 324.75-1.28906 323.656-2.60156 323.109-4.44531 323.109-6.82031 323.109-9.13281 323.613-10.9023 324.621-12.1289 325.629-13.3555 327.805-14.5312 331.148-15.6562L331.219-15.6797C333.969-16.6016 335.344-17.6797 335.344-18.9141L335.344-21.3984C335.344-22.5078 335.031-23.3164 334.406-23.8242 333.781-24.332 332.766-24.5859 331.359-24.5859 330.047-24.5859 329.055-24.2344 328.383-23.5312 327.711-22.8281 327.375-21.75 327.375-20.2969L327.375-19.8281 323.836-19.8281C323.836-22.5 324.492-24.5078 325.805-25.8516 327.07-27.1172 329.07-27.75 331.805-27.75 334.336-27.75 336.199-27.168 337.395-26.0039 338.59-24.8398 339.188-23 339.188-20.4844L339.188-4.71094C339.188-4.00781 339.312-3.50391 339.562-3.19922 339.812-2.89453 340.219-2.74219 340.781-2.74219L341.297-2.8125 341.391-2.83594ZM325.125-36.0469 327.328-36.0469C327.469-35.0469 327.836-34.3203 328.43-33.8672 328.742-33.6484 329.105-33.4844 329.52-33.375 329.934-33.2656 330.453-33.2109 331.078-33.2109 332.25-33.2109 333.121-33.4336 333.691-33.8789 334.262-34.3242 334.625-35.0469 334.781-36.0469L336.984-36.0469C336.797-33.9688 336.227-32.4492 335.273-31.4883 334.32-30.5273 332.922-30.0469 331.078-30.0469 329.219-30.0469 327.816-30.5234 326.871-31.4766 325.926-32.4297 325.344-33.9531 325.125-36.0469ZM345.216 0 345.216-26.9766 348.755-26.9766 348.755-23.625C349.411-24.9375 350.302-25.9219 351.427-26.5781 352.552-27.2344 353.919-27.5625 355.529-27.5625 357.904-27.5625 359.595-26.9609 360.603-25.7578 361.611-24.5547 362.115-22.4844 362.115-19.5469L362.115 0 358.318 0 358.318-19.8281C358.318-21.2812 358.005-22.3711 357.38-23.0977 356.755-23.8242 355.802-24.1875 354.521-24.1875 352.833-24.1875 351.493-23.6562 350.501-22.5938 349.509-21.5312 349.013-20.0938 349.013-18.2812L349.013 0ZM380.549 0 380.549-36.0938 384.206-36.0938 384.206-14.7422 393.417-26.9766 397.823-26.9766 389.76-16.7578 398.456 0 393.839 0 387.182-13.2891 384.206-9.60938 384.206 0ZM400.883 0 400.883-36.0938 404.68-36.0938 404.68-24.0469C405.383-25.2031 406.266-26.0859 407.328-26.6953 408.438-27.2734 409.727-27.5625 411.195-27.5625 413.258-27.5625 414.871-27.0273 416.035-25.957 417.199-24.8867 417.781-23.3828 417.781-21.4453L417.781 0 413.984 0 413.984-19.6406C413.984-21.2188 413.684-22.3711 413.082-23.0977 412.48-23.8242 411.516-24.1875 410.188-24.1875 408.516-24.1875 407.18-23.6523 406.18-22.582 405.18-21.5117 404.68-20.0781 404.68-18.2812L404.68 0ZM422.609-13.4766C422.609-18.3047 423.383-21.8906 424.93-24.2344 426.477-26.5781 428.859-27.75 432.078-27.75 435.313-27.75 437.703-26.5977 439.25-24.293 440.797-21.9883 441.57-18.3828 441.57-13.4766 441.57-8.58594 440.805-4.99609 439.273-2.70703 437.742-0.417969 435.344 0.726562 432.078 0.726562 428.797 0.726562 426.398-0.414063 424.883-2.69531 423.367-4.97656 422.609-8.57031 422.609-13.4766ZM426.641-13.4766C426.641-9.42969 427.055-6.58594 427.883-4.94531 428.711-3.30469 430.109-2.48438 432.078-2.48438 434-2.48438 435.383-3.32422 436.227-5.00391 437.07-6.68359 437.492-9.50781 437.492-13.4766 437.492-17.4453 437.074-20.2617 436.238-21.9258 435.402-23.5898 434.016-24.4219 432.078-24.4219 430.156-24.4219 428.77-23.6055 427.918-21.9727 427.066-20.3398 426.641-17.5078 426.641-13.4766ZM449.667-16.4062 458.831-16.4062 458.831-17.1328C458.831-18.4141 458.745-19.5039 458.573-20.4023 458.401-21.3008 458.12-22.0781 457.729-22.7344 457.026-24 455.94-24.6328 454.471-24.6328 452.878-24.6328 451.678-23.957 450.874-22.6055 450.069-21.2539 449.667-19.1875 449.667-16.4062ZM458.878-9.11719 462.581-9.11719C462.581-5.94531 461.862-3.51172 460.424-1.81641 458.987-0.121094 456.94 0.726562 454.284 0.726562 451.393 0.726562 449.253-0.410156 447.862-2.68359 446.471-4.95703 445.776-8.46094 445.776-13.1953 445.776-18.2266 446.467-21.9102 447.85-24.2461 449.233-26.582 451.409-27.75 454.378-27.75 457.159-27.75 459.237-26.7578 460.612-24.7734 461.987-22.7891 462.674-19.7656 462.674-15.7031L462.651-14.25 462.628-13.3594 449.667-13.3359 449.667-12.1406C449.667-8.73438 450.057-6.26562 450.839-4.73438 451.62-3.20312 452.862-2.4375 454.565-2.4375 455.878-2.4375 456.924-3.02344 457.706-4.19531 458.487-5.36719 458.878-6.94531 458.878-8.92969ZM452.01-29.8594 455.995-36.2344 460.167-36.2344 454.378-29.8594ZM480.549 0 480.549-26.9766 484.042-26.9766 484.042-23.7188C484.76-24.9687 485.721-25.9297 486.924-26.6016 488.128-27.2734 489.534-27.6094 491.143-27.6094 492.643-27.6094 493.889-27.2773 494.882-26.6133 495.874-25.9492 496.565-24.9687 496.956-23.6719 497.362-24.3281 497.803-24.9023 498.28-25.3945 498.757-25.8867 499.292-26.2969 499.885-26.625 501.042-27.2812 502.401-27.6094 503.964-27.6094 506.151-27.6094 507.827-27.043 508.991-25.9102 510.155-24.7773 510.737-23.1328 510.737-20.9766L510.737 0 506.846 0 506.846-18.6328C506.846-20.8047 506.565-22.2812 506.003-23.0625 505.44-23.8437 504.456-24.2344 503.049-24.2344 501.44-24.2344 500.128-23.7266 499.112-22.7109 498.096-21.6953 497.589-20.3828 497.589-18.7734L497.589 0 493.698 0 493.698-18.7734C493.698-20.7422 493.397-22.1445 492.796-22.9805 492.194-23.8164 491.198-24.2344 489.807-24.2344 488.167-24.2344 486.831-23.7422 485.799-22.7578 484.768-21.7734 484.253-20.5078 484.253-18.9609L484.253 0ZM527.938-14.5547C527.375-13.9141 526.062-13.2187 524-12.4688L523.625-12.3281C521.906-11.7188 520.773-11.0312 520.227-10.2656 519.68-9.5 519.406-8.36719 519.406-6.86719 519.406-5.52344 519.703-4.48438 520.297-3.75 520.891-3.01562 521.727-2.64844 522.805-2.64844 524.352-2.64844 525.594-3.23828 526.531-4.41797 527.469-5.59766 527.938-7.19531 527.938-9.21094ZM533.914 0.046875 532.648 0.210938 531.688 0.28125C530.641 0.28125 529.805-0.0546875 529.18-0.726562 528.867-1.07031 528.625-1.47266 528.453-1.93359 528.281-2.39453 528.195-2.94531 528.195-3.58594 527.633-2.21094 526.801-1.15625 525.699-0.421875 524.598 0.3125 523.297 0.679688 521.797 0.679688 519.859 0.679688 518.344 0.0234375 517.25-1.28906 516.156-2.60156 515.609-4.44531 515.609-6.82031 515.609-9.13281 516.113-10.9023 517.121-12.1289 518.129-13.3555 520.305-14.5312 523.648-15.6562L523.719-15.6797C526.469-16.6016 527.844-17.6797 527.844-18.9141L527.844-21.3984C527.844-22.5078 527.531-23.3164 526.906-23.8242 526.281-24.332 525.266-24.5859 523.859-24.5859 522.547-24.5859 521.555-24.2344 520.883-23.5312 520.211-22.8281 519.875-21.75 519.875-20.2969L519.875-19.8281 516.336-19.8281C516.336-22.5 516.992-24.5078 518.305-25.8516 519.57-27.1172 521.57-27.75 524.305-27.75 526.836-27.75 528.699-27.168 529.895-26.0039 531.09-24.8398 531.688-23 531.688-20.4844L531.688-4.71094C531.688-4.00781 531.812-3.50391 532.062-3.19922 532.312-2.89453 532.719-2.74219 533.281-2.74219L533.797-2.8125 533.891-2.83594ZM517.625-36.0469 519.828-36.0469C519.969-35.0469 520.336-34.3203 520.93-33.8672 521.242-33.6484 521.605-33.4844 522.02-33.375 522.434-33.2656 522.953-33.2109 523.578-33.2109 524.75-33.2109 525.621-33.4336 526.191-33.8789 526.762-34.3242 527.125-35.0469 527.281-36.0469L529.484-36.0469C529.297-33.9688 528.727-32.4492 527.773-31.4883 526.82-30.5273 525.422-30.0469 523.578-30.0469 521.719-30.0469 520.316-30.5234 519.371-31.4766 518.426-32.4297 517.844-33.9531 517.625-36.0469ZM525.805-42.0234 529.977-42.0234 524.188-35.6953 521.82-35.6953ZM542.029-5.57812C542.029-4.45312 542.236-3.71484 542.65-3.36328 543.064-3.01172 544.029-2.83594 545.544-2.83594L546.036-2.83594C546.208-2.83594 546.325-2.85156 546.388-2.88281L546.411 0.421875 545.474 0.46875 543.622 0.539062C541.857 0.539062 540.536 0.183594 539.661-0.527344 538.786-1.23828 538.349-2.3125 538.349-3.75L538.349-23.8594 534.599-23.8594 534.599-26.9766 538.349-26.9766 538.349-34.1719 542.029-34.1719 542.029-26.9766 546.411-26.9766 546.411-23.8594 542.029-23.8594Z" fill="#AB3E97" transform="translate(32.6419 66)"/></g></g><text fill="#AB3E97" font-family="UTM Swiss Condensed,UTM Swiss Condensed_MSFontService,sans-serif" font-weight="400" font-stretch="condensed" font-size="48" transform="translate(366.667 89)">Hiệu quả giảm nhăn khoé mắt</text></g><path d="M484.5 156.5 490 156.5 490 128.5 501 128.5 501 156.5 506.5 156.5 495.5 167.5Z" stroke="#AB3E97" stroke-width="1.33333" stroke-miterlimit="8" fill="#AB3E97" fill-rule="evenodd"/><path d="M1109.5 478 1114.75 478 1114.75 128.5 1125.25 128.5 1125.25 478 1130.5 478 1120 488.5Z" stroke="#AB3E97" stroke-width="1.33333" stroke-miterlimit="8" fill="#AB3E97" fill-rule="evenodd"/></g></svg>