<svg width="1280" height="720" xmlns="http://www.w3.org/2000/svg" xmlns:xlink="http://www.w3.org/1999/xlink" overflow="hidden"><defs><clipPath id="clip0"><rect x="-134" y="644" width="923" height="44"/></clipPath><clipPath id="clip1"><rect x="491" y="644" width="923" height="44"/></clipPath></defs><g><rect x="0" y="0" width="1280" height="720" fill="#FFFFFF"/><g><path d="M14.5001 511.5 1265.5 511.5M14.5001 401.5 1265.5 401.5M14.5001 292.5 1265.5 292.5M14.5001 182.5 1265.5 182.5M14.5001 73.5001 1265.5 73.5001" stroke="#D9D9D9" stroke-linejoin="round" stroke-miterlimit="10" fill="none"/></g><g><path d="M168 183 308 183 308 621 168 621ZM794 183 934 183 934 621 794 621Z" fill="#4472C4"/></g><g><path d="M346 260 486 260 486 621 346 621ZM972 533 1112 533 1112 621 972 621Z" fill="#ED7D31"/></g><g><path d="M14.5001 620.5 1265.5 620.5" stroke="#D9D9D9" stroke-linejoin="round" stroke-miterlimit="10" fill="none" fill-rule="evenodd"/></g><g><g clip-path="url(#clip0)"><text fill="#AB3E97" font-family="UTM Swiss Condensed,UTM Swiss Condensed_MSFontService,sans-serif" font-weight="400" font-stretch="condensed" font-size="32" transform="translate(261.433 681)">Sau 4 tuần</text></g></g><g><g clip-path="url(#clip1)"><text fill="#AB3E97" font-family="UTM Swiss Condensed,UTM Swiss Condensed_MSFontService,sans-serif" font-weight="400" font-stretch="condensed" font-size="32" transform="translate(886.767 681)">Sau 8 tuần</text></g></g><g><path d="M465.5 235.5 472 235.5 472 181.5 485 181.5 485 235.5 491.5 235.5 478.5 248.5Z" stroke="#AB3E97" stroke-width="1.33333" stroke-miterlimit="8" fill="#AB3E97" fill-rule="evenodd"/></g><g><path d="M1090.5 513.01 1096.75 513.01 1096.75 182.5 1109.24 182.5 1109.24 513.01 1115.48 513.01 1102.99 525.5Z" stroke="#AB3E97" stroke-width="1.33333" stroke-miterlimit="8" fill="#AB3E97" fill-rule="evenodd"/></g><g><g><text fill="#AB3E97" font-family="UTM Swiss Condensed,UTM Swiss Condensed_MSFontService,sans-serif" font-weight="400" font-stretch="condensed" font-size="37" transform="translate(396.569 235)">7%</text></g></g><g><g><text fill="#AB3E97" font-family="UTM Swiss Condensed,UTM Swiss Condensed_MSFontService,sans-serif" font-weight="400" font-stretch="condensed" font-size="37" transform="translate(1009.19 362)">32%</text></g></g><g><g><text fill="#AB3E97" font-family="UTM Swiss Condensed,UTM Swiss Condensed_MSFontService,sans-serif" font-weight="400" font-stretch="condensed" font-size="37" transform="translate(427.167 131)">Hiệu quả giảm nhăn khoé mắt</text></g></g></g></svg>